<svg width="126" height="126" viewBox="0 0 126 126" fill="none" xmlns="http://www.w3.org/2000/svg">
<rect x="5" y="5" width="116" height="115.421" rx="15" stroke="#10B981" stroke-width="10"/>
<path d="M104.92 108.42C106.301 108.42 107.42 107.301 107.42 105.92V83.4203C107.42 82.0396 106.301 80.9203 104.92 80.9203C103.54 80.9203 102.42 82.0396 102.42 83.4203V103.42H82.4203C81.0396 103.42 79.9203 104.54 79.9203 105.92C79.9203 107.301 81.0396 108.42 82.4203 108.42H104.92ZM85 86L83.2322 87.7678L103.153 107.688L104.92 105.92L106.688 104.153L86.7678 84.2322L85 86Z" fill="#10B981"/>
<path d="M21.0001 108.42C19.6194 108.42 18.5001 107.301 18.5001 105.92V83.4203C18.5001 82.0396 19.6194 80.9203 21.0001 80.9203C22.3808 80.9203 23.5001 82.0396 23.5001 83.4203V103.42H43.5001C44.8808 103.42 46.0001 104.54 46.0001 105.92C46.0001 107.301 44.8808 108.42 43.5001 108.42H21.0001ZM40.9204 86L42.6882 87.7678L22.7679 107.688L21.0001 105.92L19.2323 104.153L39.1526 84.2322L40.9204 86Z" fill="#10B981"/>
<path d="M104.92 17.5C106.301 17.5 107.42 18.6193 107.42 20V42.5C107.42 43.8807 106.301 45 104.92 45C103.54 45 102.42 43.8807 102.42 42.5V22.5H82.4203C81.0396 22.5 79.9203 21.3807 79.9203 20C79.9203 18.6193 81.0396 17.5 82.4203 17.5H104.92ZM85 39.9203L83.2322 38.1525L103.153 18.2322L104.92 20L106.688 21.7677L86.7678 41.6881L85 39.9203Z" fill="#10B981"/>
<path d="M21.0001 17.5C19.6194 17.5 18.5001 18.6193 18.5001 20V42.5C18.5001 43.8807 19.6194 45 21.0001 45C22.3808 45 23.5001 43.8807 23.5001 42.5V22.5H43.5001C44.8808 22.5 46.0001 21.3807 46.0001 20C46.0001 18.6193 44.8808 17.5 43.5001 17.5H21.0001ZM40.9204 39.9203L42.6882 38.1525L22.7679 18.2322L21.0001 20L19.2323 21.7677L39.1526 41.6881L40.9204 39.9203Z" fill="#10B981"/>
<path d="M28.432 57.488C28.0807 57.9867 27.6613 58.5023 27.174 59.035C26.6867 59.5563 26.1483 60.0777 25.559 60.599C24.9697 61.109 24.3407 61.5963 23.672 62.061C23.0147 62.5257 22.3347 62.9507 21.632 63.336C21.5073 63.098 21.3147 62.8203 21.054 62.503C20.8047 62.1743 20.5667 61.908 20.34 61.704C21.326 61.194 22.2667 60.5933 23.162 59.902C24.0573 59.1993 24.862 58.4627 25.576 57.692C26.29 56.9213 26.8567 56.1903 27.276 55.499H29.401C29.8543 56.145 30.3643 56.7683 30.931 57.369C31.4977 57.9697 32.0927 58.5307 32.716 59.052C33.3507 59.562 34.0023 60.0267 34.671 60.446C35.351 60.854 36.031 61.2053 36.711 61.5C36.4503 61.7607 36.2067 62.0497 35.98 62.367C35.7533 62.6843 35.5437 63.0017 35.351 63.319C34.705 62.9563 34.0477 62.5483 33.379 62.095C32.7103 61.6303 32.07 61.143 31.458 60.633C30.846 60.1117 30.2793 59.5847 29.758 59.052C29.2367 58.5193 28.7947 57.998 28.432 57.488ZM22.669 65.478H34.297V67.246H22.669V65.478ZM23.536 61.704H33.515V63.506H23.536V61.704ZM21.292 69.303H35.827V71.122H21.292V69.303ZM27.378 62.503H29.52V70.306H27.378V62.503ZM39.516 68.589H51.45V70.527H39.516V68.589ZM37.85 56.57H53.167V58.474H37.85V56.57ZM38.377 59.596H40.366V71.53H38.377V59.596ZM50.668 59.596H52.64V71.496H50.668V59.596ZM44.412 57.131H46.469V60.616H44.412V57.131ZM44.565 60.616H46.316V66.957H44.565V60.616ZM43.103 64.492V65.937H47.795V64.492H43.103ZM43.103 61.517V62.945H47.795V61.517H43.103ZM41.437 59.851H49.546V67.603H41.437V59.851ZM60.12 63.047H64.506V64.645H60.12V63.047ZM60.12 65.92H64.523V67.518H60.12V65.92ZM56.839 68.776H68.314V70.663H56.839V68.776ZM55.547 59.987H69.436V71.53H67.362V61.857H57.519V71.53H55.547V59.987ZM59.253 61.228H61.072V69.626H59.253V61.228ZM63.69 61.228H65.526V69.609H63.69V61.228ZM61.191 57.42L63.588 57.93C63.384 58.5533 63.1857 59.1767 62.993 59.8C62.8117 60.412 62.636 60.939 62.466 61.381L60.613 60.888C60.6923 60.5593 60.7717 60.1967 60.851 59.8C60.9303 59.392 60.9983 58.984 61.055 58.576C61.123 58.1567 61.1683 57.7713 61.191 57.42ZM54.85 56.536H70.218V58.457H54.85V56.536ZM72.564 56.689H86.504V58.423H72.564V56.689ZM73.363 59.29H85.841V60.905H73.363V59.29ZM71.935 61.857H87.031V63.591H71.935V61.857ZM78.429 55.55H80.486V63.302H78.429V55.55ZM78.446 62.486L80.214 63.336C79.7493 63.8233 79.2223 64.2937 78.633 64.747C78.055 65.2003 77.4317 65.6253 76.763 66.022C76.0943 66.4073 75.4087 66.7587 74.706 67.076C74.0033 67.382 73.3007 67.6427 72.598 67.858C72.5073 67.6993 72.3827 67.518 72.224 67.314C72.0767 67.11 71.918 66.9117 71.748 66.719C71.5893 66.515 71.4363 66.345 71.289 66.209C71.9577 66.0277 72.6377 65.8067 73.329 65.546C74.0203 65.2853 74.6833 64.9907 75.318 64.662C75.9527 64.3333 76.5363 63.9877 77.069 63.625C77.613 63.2623 78.072 62.8827 78.446 62.486ZM81.387 62.809C81.6817 63.931 82.0953 64.951 82.628 65.869C83.1607 66.787 83.8407 67.569 84.668 68.215C85.4953 68.8497 86.487 69.3313 87.643 69.66C87.4957 69.8073 87.337 69.983 87.167 70.187C86.997 70.4023 86.8383 70.6233 86.691 70.85C86.5437 71.088 86.419 71.2977 86.317 71.479C85.059 71.0483 83.988 70.4477 83.104 69.677C82.2313 68.895 81.506 67.96 80.928 66.872C80.3613 65.784 79.891 64.5487 79.517 63.166L81.387 62.809ZM85.297 63.829L86.997 65.104C86.5663 65.41 86.1187 65.716 85.654 66.022C85.1893 66.3167 84.7303 66.5943 84.277 66.855C83.8237 67.1157 83.3987 67.348 83.002 67.552L81.727 66.447C82.101 66.2203 82.5033 65.9597 82.934 65.665C83.376 65.3703 83.801 65.0643 84.209 64.747C84.6283 64.4297 84.991 64.1237 85.297 63.829ZM73.091 69.609C73.7823 69.4843 74.57 69.337 75.454 69.167C76.3493 68.9857 77.2843 68.793 78.259 68.589C79.245 68.385 80.2197 68.1753 81.183 67.96L81.37 69.796C80.486 70 79.585 70.204 78.667 70.408C77.7603 70.612 76.882 70.8047 76.032 70.986C75.1933 71.1673 74.417 71.3373 73.703 71.496L73.091 69.609ZM75.42 66.158L76.763 64.815L77.477 65.002V69.881H75.42V66.158ZM95.446 61.874H97.673V69.133C97.673 69.6997 97.5993 70.1417 97.452 70.459C97.3047 70.7763 97.0327 71.0143 96.636 71.173C96.2393 71.3317 95.7577 71.428 95.191 71.462C94.6243 71.5073 93.9727 71.53 93.236 71.53C93.1907 71.2127 93.0943 70.8443 92.947 70.425C92.811 70.017 92.6637 69.66 92.505 69.354C92.8337 69.3653 93.168 69.3767 93.508 69.388C93.8593 69.3993 94.171 69.405 94.443 69.405C94.7263 69.405 94.919 69.405 95.021 69.405C95.1797 69.405 95.2873 69.3823 95.344 69.337C95.412 69.2803 95.446 69.1953 95.446 69.082V61.874ZM91.349 64.016L93.508 64.577C93.2587 65.257 92.9527 65.9257 92.59 66.583C92.2387 67.2403 91.8647 67.858 91.468 68.436C91.0713 69.014 90.669 69.5183 90.261 69.949C90.125 69.8357 89.938 69.6997 89.7 69.541C89.4733 69.3823 89.241 69.2293 89.003 69.082C88.765 68.9347 88.5553 68.8157 88.374 68.725C88.986 68.1697 89.5583 67.467 90.091 66.617C90.6237 65.767 91.043 64.9 91.349 64.016ZM99.407 64.747L101.328 63.965C101.702 64.4863 102.076 65.053 102.45 65.665C102.824 66.2657 103.164 66.8663 103.47 67.467C103.776 68.0563 104.008 68.5947 104.167 69.082L102.042 70C101.917 69.5353 101.713 69.0027 101.43 68.402C101.158 67.79 100.841 67.1667 100.478 66.532C100.127 65.8973 99.7697 65.3023 99.407 64.747ZM90.465 56.655H102.518V58.678H90.465V56.655ZM88.918 60.752H104.116V62.775H88.918V60.752Z" fill="#10B981"/>
</svg>
