<svg width="51" height="49" viewBox="0 0 51 49" fill="none" xmlns="http://www.w3.org/2000/svg">
<rect width="50.0105" height="49.0051" rx="10" fill="#10B981"/>
<rect x="8.05896" y="7.5" width="33.4517" height="34.9371" stroke="white"/>
<path d="M10.8378 10.8711C10.2923 10.8711 9.84999 11.3242 9.84998 11.8831L9.84998 20.991C9.84998 21.55 10.2923 22.003 10.8378 22.003C11.3834 22.003 11.8257 21.55 11.8257 20.991L11.8257 12.8951L19.7285 12.8951C20.2741 12.8951 20.7164 12.442 20.7164 11.8831C20.7164 11.3242 20.2741 10.8711 19.7285 10.8711L10.8378 10.8711ZM36.3046 39.3133C36.8499 39.3313 37.3062 38.893 37.3238 38.3344L37.6104 29.2312C37.628 28.6726 37.2002 28.2051 36.6549 28.1871C36.1096 28.1691 35.6533 28.6073 35.6357 29.1659L35.3809 37.2577L27.4822 36.9967C26.9369 36.9787 26.4806 37.4169 26.463 37.9755C26.4454 38.5341 26.8732 39.0016 27.4185 39.0196L36.3046 39.3133ZM19.0694 20.3158L19.7679 19.6002L11.5364 11.1675L10.8378 11.8831L10.1393 12.5987L18.3709 21.0314L19.0694 20.3158ZM28.6194 29.8691L27.8987 30.5612L35.6157 38.9939L36.3364 38.3018L37.0571 37.6096L29.34 29.1769L28.6194 29.8691Z" fill="white"/>
<rect width="6.66807" height="5.44502" transform="translate(34.1761 8.08905)" fill="white"/>
<rect width="6.66807" height="6.53402" transform="translate(7.50354 35.314)" fill="white"/>
</svg>
