<svg width="50" height="49" viewBox="0 0 50 49" fill="none" xmlns="http://www.w3.org/2000/svg">
<path d="M40.0098 0C45.5326 0 50.0098 4.47715 50.0098 10V39.0049C50.0098 44.5277 45.5326 49.0049 40.0098 49.0049H10C4.47715 49.0049 0 44.5277 0 39.0049V10C0 4.47715 4.47715 0 10 0H40.0098ZM37.6201 23.9336C36.7922 23.9341 36.1204 24.6057 36.1201 25.4336V28.291C36.1201 29.3991 35.6716 30.4687 34.8623 31.2617C34.0521 32.0556 32.9467 32.5068 31.7881 32.5068H15.0469L18.2559 29.3633C18.8476 28.7835 18.8572 27.8329 18.2773 27.2412C17.6976 26.6501 16.7478 26.6404 16.1562 27.2197L10.3232 32.9355C10.0355 33.2176 9.87317 33.6039 9.87305 34.0068C9.87305 34.4097 10.0356 34.796 10.3232 35.0781L16.1562 40.7939C16.748 41.3736 17.6976 41.3641 18.2773 40.7725C18.8571 40.1808 18.8473 39.2312 18.2559 38.6514L15.0469 35.5068H31.7881C33.723 35.5068 35.5846 34.7539 36.9619 33.4043C38.3403 32.0536 39.1201 30.2146 39.1201 28.291V25.4336C39.1199 24.6054 38.4484 23.9336 37.6201 23.9336ZM32.8379 7.21582C32.2462 6.63647 31.2965 6.64592 30.7168 7.2373C30.1372 7.82888 30.147 8.77857 30.7383 9.3584L33.9463 12.5029H17.2061C15.2712 12.503 13.4085 13.2559 12.0312 14.6055C10.6532 15.956 9.87324 17.7946 9.87305 19.7178V22.5762C9.87319 23.4043 10.5449 24.0759 11.373 24.0762C12.2014 24.0762 12.8729 23.4045 12.873 22.5762V19.7178C12.8732 18.6101 13.3219 17.5409 14.1309 16.748C14.9411 15.9541 16.0474 15.503 17.2061 15.5029H33.9463L30.7383 18.6465C30.1468 19.2262 30.1374 20.1759 30.7168 20.7676C31.2966 21.3593 32.2462 21.3688 32.8379 20.7891L38.6699 15.0742C38.9578 14.7922 39.12 14.4059 39.1201 14.0029C39.12 13.6 38.9578 13.2137 38.6699 12.9316L32.8379 7.21582Z" fill="#10B981"/>
</svg>
